<mxfile host="app.diagrams.net" modified="2024-02-27T05:23:33.769Z" agent="Mozilla/5.0 (Macintosh; Intel Mac OS X 10_15_7) AppleWebKit/537.36 (KHTML, like Gecko) Chrome/121.0.0.0 Safari/537.36" etag="YDZQ7PdT1Sza7jv2AEfp" version="23.1.7" type="device">
  <diagram name="Page-1" id="h17REvQWhREFR6ctqLKs">
    <mxGraphModel dx="2341" dy="845" grid="1" gridSize="10" guides="1" tooltips="1" connect="1" arrows="1" fold="1" page="1" pageScale="1" pageWidth="827" pageHeight="1169" math="0" shadow="0">
      <root>
        <mxCell id="0" />
        <mxCell id="1" parent="0" />
        <mxCell id="h2z_HUPA1Os4weyzJMN2-2" style="edgeStyle=orthogonalEdgeStyle;rounded=0;orthogonalLoop=1;jettySize=auto;html=1;" edge="1" parent="1" source="xkMrt5bkhmXYlNiiDj_x-1" target="h2z_HUPA1Os4weyzJMN2-1">
          <mxGeometry relative="1" as="geometry" />
        </mxCell>
        <mxCell id="h2z_HUPA1Os4weyzJMN2-6" value=" real-time data " style="edgeLabel;html=1;align=center;verticalAlign=middle;resizable=0;points=[];" vertex="1" connectable="0" parent="h2z_HUPA1Os4weyzJMN2-2">
          <mxGeometry x="-0.5409" y="-2" relative="1" as="geometry">
            <mxPoint y="1" as="offset" />
          </mxGeometry>
        </mxCell>
        <mxCell id="xkMrt5bkhmXYlNiiDj_x-1" value="Moisture sensors" style="verticalLabelPosition=bottom;sketch=0;html=1;fillColor=#6ABD46;strokeColor=#ffffff;verticalAlign=top;align=center;points=[[0.085,0.085,0],[0.915,0.085,0],[0.915,0.915,0],[0.085,0.915,0],[0.25,0,0],[0.5,0,0],[0.75,0,0],[1,0.25,0],[1,0.5,0],[1,0.75,0],[0.75,1,0],[0.5,1,0],[0.25,1,0],[0,0.75,0],[0,0.5,0],[0,0.25,0]];pointerEvents=1;shape=mxgraph.cisco_safe.compositeIcon;bgIcon=mxgraph.cisco_safe.architecture.generic_appliance;resIcon=mxgraph.cisco_safe.architecture.flow_sensor;" parent="1" vertex="1">
          <mxGeometry x="-30" y="70" width="50" height="50" as="geometry" />
        </mxCell>
        <mxCell id="h2z_HUPA1Os4weyzJMN2-3" style="edgeStyle=orthogonalEdgeStyle;rounded=0;orthogonalLoop=1;jettySize=auto;html=1;" edge="1" parent="1" source="xkMrt5bkhmXYlNiiDj_x-2" target="h2z_HUPA1Os4weyzJMN2-1">
          <mxGeometry relative="1" as="geometry" />
        </mxCell>
        <mxCell id="h2z_HUPA1Os4weyzJMN2-7" value=" real-time data " style="edgeLabel;html=1;align=center;verticalAlign=middle;resizable=0;points=[];" vertex="1" connectable="0" parent="h2z_HUPA1Os4weyzJMN2-3">
          <mxGeometry x="-0.467" relative="1" as="geometry">
            <mxPoint x="14" y="1" as="offset" />
          </mxGeometry>
        </mxCell>
        <mxCell id="xkMrt5bkhmXYlNiiDj_x-2" value="Weather stations" style="verticalLabelPosition=bottom;outlineConnect=0;align=center;dashed=0;html=1;verticalAlign=top;shape=mxgraph.pid.misc.cooling_tower_(wet-dry,_natural_draught);" parent="1" vertex="1">
          <mxGeometry x="-27.5" y="160" width="45" height="40" as="geometry" />
        </mxCell>
        <mxCell id="h2z_HUPA1Os4weyzJMN2-4" style="edgeStyle=orthogonalEdgeStyle;rounded=0;orthogonalLoop=1;jettySize=auto;html=1;" edge="1" parent="1" source="xkMrt5bkhmXYlNiiDj_x-3" target="h2z_HUPA1Os4weyzJMN2-1">
          <mxGeometry relative="1" as="geometry" />
        </mxCell>
        <mxCell id="h2z_HUPA1Os4weyzJMN2-8" value=" real-time data " style="edgeLabel;html=1;align=center;verticalAlign=middle;resizable=0;points=[];" vertex="1" connectable="0" parent="h2z_HUPA1Os4weyzJMN2-4">
          <mxGeometry x="-0.029" relative="1" as="geometry">
            <mxPoint x="1" as="offset" />
          </mxGeometry>
        </mxCell>
        <mxCell id="xkMrt5bkhmXYlNiiDj_x-3" value="Drones" style="shape=mxgraph.signs.transportation.airplane_3;html=1;pointerEvents=1;fillColor=#000000;strokeColor=none;verticalLabelPosition=bottom;verticalAlign=top;align=center;" parent="1" vertex="1">
          <mxGeometry x="-25" y="240" width="40" height="50" as="geometry" />
        </mxCell>
        <mxCell id="h2z_HUPA1Os4weyzJMN2-5" style="edgeStyle=orthogonalEdgeStyle;rounded=0;orthogonalLoop=1;jettySize=auto;html=1;" edge="1" parent="1" source="xkMrt5bkhmXYlNiiDj_x-4" target="h2z_HUPA1Os4weyzJMN2-1">
          <mxGeometry relative="1" as="geometry" />
        </mxCell>
        <mxCell id="h2z_HUPA1Os4weyzJMN2-9" value=" real-time data " style="edgeLabel;html=1;align=center;verticalAlign=middle;resizable=0;points=[];" vertex="1" connectable="0" parent="h2z_HUPA1Os4weyzJMN2-5">
          <mxGeometry x="-0.3363" y="1" relative="1" as="geometry">
            <mxPoint y="1" as="offset" />
          </mxGeometry>
        </mxCell>
        <mxCell id="xkMrt5bkhmXYlNiiDj_x-4" value="IoT devices&lt;br&gt;across framland" style="verticalLabelPosition=bottom;aspect=fixed;html=1;shape=mxgraph.salesforce.iot;" parent="1" vertex="1">
          <mxGeometry x="-25" y="330" width="40" height="40" as="geometry" />
        </mxCell>
        <mxCell id="h2z_HUPA1Os4weyzJMN2-11" style="edgeStyle=orthogonalEdgeStyle;rounded=0;orthogonalLoop=1;jettySize=auto;html=1;" edge="1" parent="1" source="h2z_HUPA1Os4weyzJMN2-1" target="h2z_HUPA1Os4weyzJMN2-10">
          <mxGeometry relative="1" as="geometry" />
        </mxCell>
        <mxCell id="h2z_HUPA1Os4weyzJMN2-12" value="Analyze environmental conditions, &lt;br&gt;crop health, &lt;br&gt;and irrigation needs in real-time." style="edgeLabel;html=1;align=center;verticalAlign=middle;resizable=0;points=[];" vertex="1" connectable="0" parent="h2z_HUPA1Os4weyzJMN2-11">
          <mxGeometry x="0.1053" y="-1" relative="1" as="geometry">
            <mxPoint y="1" as="offset" />
          </mxGeometry>
        </mxCell>
        <mxCell id="h2z_HUPA1Os4weyzJMN2-1" value="Azure IoT Hub" style="image;aspect=fixed;html=1;points=[];align=center;fontSize=12;image=img/lib/azure2/iot/IoT_Hub.svg;" vertex="1" parent="1">
          <mxGeometry x="130" y="210" width="64" height="64" as="geometry" />
        </mxCell>
        <mxCell id="h2z_HUPA1Os4weyzJMN2-14" value="Visualize historical &lt;br&gt;IoT data" style="edgeStyle=orthogonalEdgeStyle;rounded=0;orthogonalLoop=1;jettySize=auto;html=1;" edge="1" parent="1" source="h2z_HUPA1Os4weyzJMN2-10" target="h2z_HUPA1Os4weyzJMN2-13">
          <mxGeometry relative="1" as="geometry">
            <Array as="points">
              <mxPoint x="540" y="242" />
              <mxPoint x="540" y="242" />
            </Array>
          </mxGeometry>
        </mxCell>
        <mxCell id="h2z_HUPA1Os4weyzJMN2-20" style="edgeStyle=orthogonalEdgeStyle;rounded=0;orthogonalLoop=1;jettySize=auto;html=1;" edge="1" parent="1" source="h2z_HUPA1Os4weyzJMN2-10" target="h2z_HUPA1Os4weyzJMN2-19">
          <mxGeometry relative="1" as="geometry" />
        </mxCell>
        <mxCell id="h2z_HUPA1Os4weyzJMN2-26" style="edgeStyle=orthogonalEdgeStyle;rounded=0;orthogonalLoop=1;jettySize=auto;html=1;" edge="1" parent="1" source="h2z_HUPA1Os4weyzJMN2-10" target="h2z_HUPA1Os4weyzJMN2-25">
          <mxGeometry relative="1" as="geometry" />
        </mxCell>
        <mxCell id="h2z_HUPA1Os4weyzJMN2-27" value="Visualize farm operations data" style="edgeLabel;html=1;align=center;verticalAlign=middle;resizable=0;points=[];" vertex="1" connectable="0" parent="h2z_HUPA1Os4weyzJMN2-26">
          <mxGeometry x="-0.16" y="1" relative="1" as="geometry">
            <mxPoint y="1" as="offset" />
          </mxGeometry>
        </mxCell>
        <mxCell id="h2z_HUPA1Os4weyzJMN2-10" value="Azure Stream Analytics" style="image;aspect=fixed;html=1;points=[];align=center;fontSize=12;image=img/lib/azure2/analytics/Stream_Analytics_Jobs.svg;" vertex="1" parent="1">
          <mxGeometry x="420" y="213" width="68" height="57.99999999999999" as="geometry" />
        </mxCell>
        <mxCell id="h2z_HUPA1Os4weyzJMN2-16" style="edgeStyle=orthogonalEdgeStyle;rounded=0;orthogonalLoop=1;jettySize=auto;html=1;" edge="1" parent="1" source="h2z_HUPA1Os4weyzJMN2-13" target="h2z_HUPA1Os4weyzJMN2-15">
          <mxGeometry relative="1" as="geometry" />
        </mxCell>
        <mxCell id="h2z_HUPA1Os4weyzJMN2-18" value="Predictive models for crop yield forecasting, &lt;br&gt;pest detection, &lt;br&gt;and optimization of farming practices" style="edgeLabel;html=1;align=center;verticalAlign=middle;resizable=0;points=[];" vertex="1" connectable="0" parent="h2z_HUPA1Os4weyzJMN2-16">
          <mxGeometry x="-0.3186" y="-1" relative="1" as="geometry">
            <mxPoint x="37" y="1" as="offset" />
          </mxGeometry>
        </mxCell>
        <mxCell id="h2z_HUPA1Os4weyzJMN2-13" value="Azure Time Series &lt;br&gt;Insights" style="image;aspect=fixed;html=1;points=[];align=center;fontSize=12;image=img/lib/azure2/iot/Time_Series_Insights_Environments.svg;" vertex="1" parent="1">
          <mxGeometry x="640" y="208" width="67" height="68" as="geometry" />
        </mxCell>
        <mxCell id="h2z_HUPA1Os4weyzJMN2-15" value="Azure Machine &lt;br&gt;Learning" style="image;aspect=fixed;html=1;points=[];align=center;fontSize=12;image=img/lib/azure2/ai_machine_learning/Machine_Learning.svg;" vertex="1" parent="1">
          <mxGeometry x="970" y="208" width="64" height="68" as="geometry" />
        </mxCell>
        <mxCell id="h2z_HUPA1Os4weyzJMN2-22" style="edgeStyle=orthogonalEdgeStyle;rounded=0;orthogonalLoop=1;jettySize=auto;html=1;" edge="1" parent="1" source="h2z_HUPA1Os4weyzJMN2-19" target="h2z_HUPA1Os4weyzJMN2-21">
          <mxGeometry relative="1" as="geometry" />
        </mxCell>
        <mxCell id="h2z_HUPA1Os4weyzJMN2-23" value="Irrigation needs, &lt;br&gt;pest infestations, &lt;br&gt;and adverse weather conditions." style="edgeLabel;html=1;align=center;verticalAlign=middle;resizable=0;points=[];" vertex="1" connectable="0" parent="h2z_HUPA1Os4weyzJMN2-22">
          <mxGeometry x="-0.2368" relative="1" as="geometry">
            <mxPoint x="18" y="1" as="offset" />
          </mxGeometry>
        </mxCell>
        <mxCell id="h2z_HUPA1Os4weyzJMN2-19" value="Anomaly&lt;br&gt;Detector" style="image;aspect=fixed;html=1;points=[];align=center;fontSize=12;image=img/lib/azure2/ai_machine_learning/Anomaly_Detector.svg;" vertex="1" parent="1">
          <mxGeometry x="420" y="360" width="68" height="68" as="geometry" />
        </mxCell>
        <mxCell id="h2z_HUPA1Os4weyzJMN2-21" value="Alert Notification" style="image;aspect=fixed;perimeter=ellipsePerimeter;html=1;align=center;shadow=0;dashed=0;fontColor=#4277BB;labelBackgroundColor=default;fontSize=12;spacingTop=3;image=img/lib/ibm/management/alert_notification.svg;" vertex="1" parent="1">
          <mxGeometry x="700" y="364" width="60" height="60" as="geometry" />
        </mxCell>
        <mxCell id="h2z_HUPA1Os4weyzJMN2-25" value="Power BI" style="image;aspect=fixed;html=1;points=[];align=center;fontSize=12;image=img/lib/azure2/analytics/Power_BI_Embedded.svg;" vertex="1" parent="1">
          <mxGeometry x="428.5" y="70" width="51" height="68" as="geometry" />
        </mxCell>
      </root>
    </mxGraphModel>
  </diagram>
</mxfile>
